<?xml version="1.0" encoding="UTF-8" standalone="no"?>
<!-- Created with Inkscape (http://www.inkscape.org/) -->

<svg
   width="512"
   height="512"
   viewBox="0 0 512 512"
   version="1.1"
   id="svg5"
   xmlns:xlink="http://www.w3.org/1999/xlink"
   xmlns="http://www.w3.org/2000/svg"
   xmlns:svg="http://www.w3.org/2000/svg">
  <defs
     id="defs2">
    <color-profile
       name="MNE007ZA1-1--1-2022-02-24-13-15-2.2-F-S-XYZLUT-MTX"
       xlink:href=".local/share/icc/MNE007ZA1-1%20%231%202022-02-24%2013-15%202.2%20F-S%20XYZLUT+MTX.icc"
       id="color-profile2389" />
    <filter
       style="color-interpolation-filters:sRGB;"
       id="filter15547"
       x="-0.01186541"
       y="-0.01285996"
       width="1.0336187"
       height="1.0364366">
      <feFlood
         flood-opacity="0.545098"
         flood-color="rgb(0,0,0)"
         result="flood"
         id="feFlood15537" />
      <feComposite
         in="flood"
         in2="SourceGraphic"
         operator="in"
         result="composite1"
         id="feComposite15539" />
      <feGaussianBlur
         in="composite1"
         stdDeviation="1.5"
         result="blur"
         id="feGaussianBlur15541" />
      <feOffset
         dx="3"
         dy="3"
         result="offset"
         id="feOffset15543" />
      <feComposite
         in="SourceGraphic"
         in2="offset"
         operator="over"
         result="composite2"
         id="feComposite15545" />
    </filter>
  </defs>
  <path
     id="path3706"
     style="fill:#d93a3a;fill-opacity:1;stroke-width:1.15014;stroke-miterlimit:4;stroke-dasharray:none"
     d="m 245.7897,104.77196 a 143.11892,143.11892 0 0 0 -90.9894,41.55529 143.11892,143.11892 0 0 0 0,202.40117 143.11892,143.11892 0 0 0 1.10495,0.95727 L 256.00001,449.78046 356.09478,349.68569 a 143.11892,143.11892 0 0 0 0.0104,-0.0104 143.11892,143.11892 0 0 0 1.09453,-0.94685 143.11892,143.11892 0 0 0 0,-202.40116 143.11892,143.11892 0 0 0 -111.41001,-41.55531 z m 10.21031,85.2701 a 57.485677,57.485677 0 0 1 57.48491,57.48664 57.485677,57.485677 0 0 1 -57.48491,57.48492 57.485677,57.485677 0 0 1 -57.48491,-57.48492 57.485677,57.485677 0 0 1 57.48491,-57.48664 z m -99.95578,159.76351 a 143.11892,143.11892 0 0 0 12.41499,10.75757 143.11892,143.11892 0 0 1 -12.41499,-10.75757 z m 199.91156,0 a 143.11892,143.11892 0 0 1 -12.41499,10.75757 143.11892,143.11892 0 0 0 12.41499,-10.75757 z m -180.18934,15.8497 a 143.11892,143.11892 0 0 0 7.77631,4.99831 143.11892,143.11892 0 0 1 -7.77631,-4.99831 z m 160.46713,0 a 143.11892,143.11892 0 0 1 -7.77631,4.99831 143.11892,143.11892 0 0 0 7.77631,-4.99831 z m -144.41764,9.49626 a 143.11892,143.11892 0 0 0 8.02995,3.66577 143.11892,143.11892 0 0 1 -8.02995,-3.66577 z m 128.36814,0 a 143.11892,143.11892 0 0 1 -8.02995,3.66577 143.11892,143.11892 0 0 0 8.02995,-3.66577 z m -111.58202,7.23774 a 143.11892,143.11892 0 0 0 9.49801,2.79016 143.11892,143.11892 0 0 1 -9.49801,-2.79016 z m 94.79591,0 a 143.11892,143.11892 0 0 1 -9.49802,2.79016 143.11892,143.11892 0 0 0 9.49802,-2.79016 z m -69.89122,6.12584 a 143.11892,143.11892 0 0 0 8.49556,1.22134 143.11892,143.11892 0 0 1 -8.49556,-1.22134 z m 44.98653,0 a 143.11892,143.11892 0 0 1 -8.49557,1.22134 143.11892,143.11892 0 0 0 8.49557,-1.22134 z m -26.6646,1.76513 a 143.11892,143.11892 0 0 0 8.34267,0 143.11892,143.11892 0 0 1 -8.34267,0 z" />
  <path
     style="fill:#38d938;fill-opacity:1;stroke:none;stroke-width:1.52259;stroke-opacity:1;filter:url(#filter15547)"
     id="path8390"
     d="m 159.04423,195.85555 c 7.60252,4.62248 13.61539,11.45473 19.72777,17.81016 9.95305,10.66228 19.38692,21.92489 27.02709,34.38892 1.51703,2.47484 2.87924,5.04131 4.31886,7.56195 4.94001,9.43945 8.62052,19.4775 11.37328,29.75705 1.01186,3.7785 1.81309,7.56235 2.65878,11.37683 0.31208,1.29854 0.46068,2.64761 0.93621,3.89559 0.22556,0.59201 0.49687,1.51735 1.13031,1.52796 18.23967,0.30563 36.5237,0.65163 54.72351,-0.59205 1.24796,-0.0853 1.31645,-2.13499 1.83585,-3.27292 1.15563,-2.53167 5.28086,-13.70757 5.76993,-15.01058 12.54063,-32.48577 27.7567,-63.91645 44.36407,-94.50655 4.49412,-8.27797 9.20564,-16.43608 13.80845,-24.65411 17.47327,-29.70895 36.40236,-58.67624 58.21918,-85.406316 11.33457,-13.887143 14.04016,-16.2635 26.03664,-28.839951 9.91652,-9.405959 12.04538,-11.780854 22.22318,-20.156815 3.01865,-2.484224 6.16654,-4.807091 9.24981,-7.210629 0,0 -49.94216,0 -49.94216,0 v 0 c -2.84486,2.403538 -5.74823,4.739518 -8.53458,7.210629 -9.68621,8.590329 -11.30544,10.569638 -20.77478,20.156815 -3.98434,4.423675 -8.09565,8.736164 -11.95297,13.270998 -20.35952,23.935588 -37.89968,50.277279 -54.46647,76.924129 -4.94313,7.95076 -9.66975,16.03409 -14.50462,24.05114 -4.71349,8.21803 -9.50098,16.39405 -14.14045,24.65411 -4.48218,7.98004 -8.82886,16.03545 -13.22339,24.06409 -10.55052,19.27536 -21.02245,38.6076 -30.88766,58.24643 -2.02734,4.03587 -3.93511,8.13068 -5.90266,12.19603 -1.06362,2.13434 -5.87115,12.03412 -7.72808,15.01058 -0.73022,1.1705 -3.90866,3.164 -2.53334,3.27292 17.06186,1.35104 34.22826,0.3947 51.3424,0.59205 -0.58874,-0.50932 -1.37839,-0.85296 -1.76619,-1.52796 -0.68458,-1.1916 -0.89973,-2.59705 -1.34959,-3.89559 -4.08438,-14.04327 -8.0933,-28.20911 -15.13292,-41.13388 -1.44725,-2.52064 -2.80786,-5.09307 -4.34177,-7.56195 -7.65653,-12.32349 -17.0059,-23.54034 -26.58615,-34.38892 -5.51328,-6.18749 -10.89228,-12.64959 -17.42049,-17.81016 0,0 -53.55705,0 -53.55705,0 z"
     transform="matrix(0.88951508,0,0,0.88951508,27.239931,45.386279)" />
  <path
     id="rect14380"
     style="fill:#d93a3a;fill-opacity:1;stroke-width:1.15014"
     d="m 118.59252,286.3616 a 143.11892,143.11892 0 0 0 36.20778,62.36682 143.11892,143.11892 0 0 0 1.10495,0.95727 L 256.00001,449.78046 356.09478,349.68569 a 143.11892,143.11892 0 0 0 0.0104,-0.0104 143.11892,143.11892 0 0 0 1.09453,-0.94685 143.11892,143.11892 0 0 0 36.51181,-62.36682 h -95.7601 a 57.485677,57.485677 0 0 1 -41.95141,18.65201 57.485677,57.485677 0 0 1 -41.95141,-18.65202 z" />
</svg>
